<mxfile host="app.diagrams.net" modified="2024-09-05T08:56:03.613Z" agent="Mozilla/5.0 (Windows NT 10.0; Win64; x64) AppleWebKit/537.36 (KHTML, like Gecko) Chrome/128.0.0.0 Safari/537.36" version="24.6.2" etag="r2SrlYKrB_XFbiqRoT1Y" type="github">
  <diagram name="페이지-1" id="tu8n1lLLsYeYYQmXlwhY">
    <mxGraphModel>
      <root>
        <mxCell id="0" />
        <mxCell id="1" parent="0" />
      </root>
    </mxGraphModel>
  </diagram>
</mxfile>
